<mxfile host="65bd71144e">
    <diagram id="ld3mcQhA281-zXJmEGoM" name="Page-1">
        <mxGraphModel dx="1446" dy="3137" grid="1" gridSize="10" guides="1" tooltips="1" connect="1" arrows="1" fold="1" page="1" pageScale="1" pageWidth="827" pageHeight="1169" math="0" shadow="0">
            <root>
                <mxCell id="0"/>
                <mxCell id="1" parent="0"/>
                <mxCell id="2" style="edgeStyle=none;shape=connector;rounded=1;html=1;labelBackgroundColor=none;strokeWidth=2;fontFamily=Helvetica;fontSize=20;fontColor=default;endArrow=none;endFill=0;exitX=0.5;exitY=0;exitDx=0;exitDy=0;fontStyle=0" parent="1" source="16" target="50" edge="1">
                    <mxGeometry relative="1" as="geometry">
                        <mxPoint x="1546.75" y="405" as="sourcePoint"/>
                        <mxPoint x="1146.75" y="395" as="targetPoint"/>
                    </mxGeometry>
                </mxCell>
                <mxCell id="3" style="rounded=0;orthogonalLoop=1;jettySize=auto;html=1;endArrow=none;endFill=0;labelBackgroundColor=none;fontColor=default;strokeWidth=2;fontSize=20;fontStyle=0;fontFamily=Helvetica;" parent="1" source="4" target="13" edge="1">
                    <mxGeometry relative="1" as="geometry">
                        <mxPoint x="1354.25" y="533" as="targetPoint"/>
                    </mxGeometry>
                </mxCell>
                <mxCell id="4" value="Usuario" style="text;html=1;align=center;verticalAlign=middle;whiteSpace=wrap;rounded=0;fontSize=20;labelBackgroundColor=none;strokeWidth=2;fontColor=default;fontStyle=0;fontFamily=Helvetica;" parent="1" vertex="1">
                    <mxGeometry x="1316.75" y="546" width="75" height="30" as="geometry"/>
                </mxCell>
                <mxCell id="5" style="edgeStyle=none;shape=connector;rounded=1;html=1;labelBackgroundColor=none;strokeWidth=2;fontFamily=Helvetica;fontSize=20;fontColor=default;endArrow=none;endFill=0;fontStyle=0" parent="1" source="20" target="9" edge="1">
                    <mxGeometry relative="1" as="geometry">
                        <mxPoint x="1856.7548818897635" y="467" as="targetPoint"/>
                        <mxPoint x="1883.31" y="516" as="sourcePoint"/>
                    </mxGeometry>
                </mxCell>
                <mxCell id="6" style="rounded=0;orthogonalLoop=1;jettySize=auto;html=1;endArrow=none;endFill=0;labelBackgroundColor=none;fontColor=default;strokeWidth=2;fontSize=20;fontStyle=0;fontFamily=Helvetica;" parent="1" source="7" target="18" edge="1">
                    <mxGeometry relative="1" as="geometry">
                        <mxPoint x="1818.25" y="333.5" as="sourcePoint"/>
                    </mxGeometry>
                </mxCell>
                <mxCell id="7" value="Pais" style="text;html=1;align=center;verticalAlign=middle;whiteSpace=wrap;rounded=0;fontSize=20;labelBackgroundColor=none;strokeWidth=2;fontColor=default;fontStyle=0;fontFamily=Helvetica;" parent="1" vertex="1">
                    <mxGeometry x="1780.75" y="353" width="75" height="30" as="geometry"/>
                </mxCell>
                <mxCell id="8" style="edgeStyle=none;shape=connector;rounded=1;orthogonalLoop=1;jettySize=auto;html=1;strokeWidth=2;align=center;verticalAlign=middle;fontFamily=Helvetica;fontSize=20;fontColor=default;labelBackgroundColor=none;endArrow=none;endFill=0;fontStyle=0" parent="1" source="9" target="60" edge="1">
                    <mxGeometry relative="1" as="geometry">
                        <mxPoint x="2068.75" y="292.00000000000045" as="targetPoint"/>
                    </mxGeometry>
                </mxCell>
                <mxCell id="11" value="&lt;span style=&quot;font-size: 20px;&quot;&gt;u.email,&amp;nbsp;&lt;/span&gt;&lt;div style=&quot;font-size: 20px;&quot;&gt;&lt;span style=&quot;font-size: 20px;&quot;&gt;u.nombre,&amp;nbsp;&lt;/span&gt;&lt;/div&gt;&lt;div style=&quot;font-size: 20px;&quot;&gt;&lt;span style=&quot;font-size: 20px;&quot;&gt;u.id_pais&lt;/span&gt;&lt;/div&gt;" style="text;whiteSpace=wrap;html=1;labelBackgroundColor=none;verticalAlign=top;strokeWidth=2;fontColor=default;fontSize=20;fontStyle=0;fontFamily=Helvetica;" parent="1" vertex="1">
                    <mxGeometry x="1364.25" y="450.75" width="112.5" height="90" as="geometry"/>
                </mxCell>
                <mxCell id="12" style="rounded=0;orthogonalLoop=1;jettySize=auto;html=1;endArrow=none;endFill=0;fontStyle=0;fontSize=20;labelBackgroundColor=none;fontColor=default;strokeWidth=2;fontFamily=Helvetica;" parent="1" source="13" target="16" edge="1">
                    <mxGeometry relative="1" as="geometry"/>
                </mxCell>
                <mxCell id="13" value="&lt;span style=&quot;font-style: normal; font-variant-ligatures: normal; font-variant-caps: normal; letter-spacing: normal; orphans: 2; text-indent: 0px; text-transform: none; widows: 2; word-spacing: 0px; -webkit-text-stroke-width: 0px; white-space: normal; text-decoration-thickness: initial; text-decoration-style: initial; text-decoration-color: initial; float: none; font-size: 35px; display: inline !important;&quot;&gt;&lt;font style=&quot;font-size: 35px;&quot;&gt;&lt;span style=&quot;font-size: 35px;&quot;&gt;π&lt;/span&gt;&lt;/font&gt;&lt;/span&gt;" style="text;whiteSpace=wrap;html=1;align=center;verticalAlign=middle;fontSize=35;labelBackgroundColor=none;strokeWidth=2;fontColor=default;fontStyle=0;fontFamily=Helvetica;" parent="1" vertex="1">
                    <mxGeometry x="1344.25" y="419.5" width="20" height="30" as="geometry"/>
                </mxCell>
                <mxCell id="14" value="&lt;span style=&quot;font-size: 20px; font-style: normal; font-variant-ligatures: normal; font-variant-caps: normal; letter-spacing: normal; orphans: 2; text-align: left; text-indent: 0px; text-transform: none; widows: 2; word-spacing: 0px; -webkit-text-stroke-width: 0px; white-space: normal; text-decoration-thickness: initial; text-decoration-style: initial; text-decoration-color: initial; float: none; display: inline !important;&quot;&gt;p.nombre_pais = 'Uruguay'&lt;/span&gt;" style="text;whiteSpace=wrap;html=1;labelBackgroundColor=none;fontSize=20;strokeWidth=2;fontColor=default;fontStyle=0;fontFamily=Helvetica;" parent="1" vertex="1">
                    <mxGeometry x="1842" y="104" width="250" height="35" as="geometry"/>
                </mxCell>
                <mxCell id="15" value="&lt;span style=&quot;font-size: 20px; font-style: normal; font-variant-ligatures: normal; font-variant-caps: normal; letter-spacing: normal; orphans: 2; text-align: left; text-indent: 0px; text-transform: none; widows: 2; word-spacing: 0px; -webkit-text-stroke-width: 0px; white-space: normal; text-decoration-thickness: initial; text-decoration-style: initial; text-decoration-color: initial; float: none; display: inline !important;&quot;&gt;u.fecha_reg BETWEEN TO_DATE('01/01/2023','DD/MM/YYYY') AND TO_DATE('31/12/2023','DD/MM/YYYY')&lt;/span&gt;" style="text;whiteSpace=wrap;html=1;labelBackgroundColor=none;strokeWidth=2;fontColor=default;fontSize=20;fontStyle=0;fontFamily=Helvetica;" parent="1" vertex="1">
                    <mxGeometry x="1376.75" y="295.5" width="410" height="100" as="geometry"/>
                </mxCell>
                <mxCell id="16" value="&lt;span style=&quot;font-size: 35px;&quot;&gt;σ &lt;/span&gt;" style="text;html=1;align=center;verticalAlign=middle;whiteSpace=wrap;rounded=0;fontFamily=Helvetica;fontSize=35;labelBackgroundColor=none;strokeWidth=2;fontColor=default;fontStyle=0" parent="1" vertex="1">
                    <mxGeometry x="1324.25" y="295.5" width="60" height="40" as="geometry"/>
                </mxCell>
                <mxCell id="17" style="edgeStyle=none;shape=connector;rounded=0;orthogonalLoop=1;jettySize=auto;html=1;align=center;verticalAlign=middle;fontFamily=Helvetica;fontSize=20;fontColor=default;labelBackgroundColor=none;endArrow=none;endFill=0;strokeWidth=2;fontStyle=0" parent="1" source="18" target="20" edge="1">
                    <mxGeometry relative="1" as="geometry"/>
                </mxCell>
                <mxCell id="18" value="&lt;span style=&quot;font-style: normal; font-variant-ligatures: normal; font-variant-caps: normal; letter-spacing: normal; orphans: 2; text-indent: 0px; text-transform: none; widows: 2; word-spacing: 0px; -webkit-text-stroke-width: 0px; white-space: normal; text-decoration-thickness: initial; text-decoration-style: initial; text-decoration-color: initial; float: none; font-size: 35px; display: inline !important;&quot;&gt;&lt;font style=&quot;font-size: 35px;&quot;&gt;&lt;span style=&quot;font-size: 35px;&quot;&gt;π&lt;/span&gt;&lt;/font&gt;&lt;/span&gt;" style="text;whiteSpace=wrap;html=1;align=center;verticalAlign=middle;fontSize=35;labelBackgroundColor=none;strokeWidth=2;fontColor=default;fontStyle=0;fontFamily=Helvetica;" parent="1" vertex="1">
                    <mxGeometry x="1808.25" y="213.5" width="20" height="30" as="geometry"/>
                </mxCell>
                <mxCell id="19" value="p.id, p.nombre" style="text;html=1;align=center;verticalAlign=middle;whiteSpace=wrap;rounded=0;fontFamily=Helvetica;fontSize=20;labelBackgroundColor=none;strokeWidth=2;fontColor=default;fontStyle=0" parent="1" vertex="1">
                    <mxGeometry x="1828.25" y="249" width="160" height="30" as="geometry"/>
                </mxCell>
                <mxCell id="20" value="&lt;span style=&quot;font-size: 35px;&quot;&gt;σ &lt;/span&gt;" style="text;html=1;align=center;verticalAlign=middle;whiteSpace=wrap;rounded=0;fontFamily=Helvetica;fontSize=35;labelBackgroundColor=none;strokeWidth=2;fontColor=default;fontStyle=0" parent="1" vertex="1">
                    <mxGeometry x="1788.25" y="83" width="60" height="45.5" as="geometry"/>
                </mxCell>
                <mxCell id="21" style="edgeStyle=none;shape=connector;rounded=1;html=1;labelBackgroundColor=none;strokeWidth=2;fontFamily=Helvetica;fontSize=20;fontColor=default;endArrow=none;endFill=0;fontStyle=0" parent="1" source="29" target="27" edge="1">
                    <mxGeometry relative="1" as="geometry">
                        <mxPoint x="2312.75" y="367.75" as="sourcePoint"/>
                        <mxPoint x="2254.847315436242" y="287.7500000000002" as="targetPoint"/>
                    </mxGeometry>
                </mxCell>
                <mxCell id="22" style="edgeStyle=none;shape=connector;rounded=1;orthogonalLoop=1;jettySize=auto;html=1;align=center;verticalAlign=middle;fontFamily=Helvetica;fontSize=20;fontColor=default;labelBackgroundColor=none;endArrow=none;endFill=0;strokeWidth=2;fontStyle=0" parent="1" source="23" target="29" edge="1">
                    <mxGeometry relative="1" as="geometry">
                        <mxPoint x="2351.25" y="199.25" as="sourcePoint"/>
                    </mxGeometry>
                </mxCell>
                <mxCell id="23" value="Idioma" style="text;html=1;align=center;verticalAlign=middle;whiteSpace=wrap;rounded=0;fontSize=20;labelBackgroundColor=none;strokeWidth=2;fontColor=default;fontStyle=0;fontFamily=Helvetica;" parent="1" vertex="1">
                    <mxGeometry x="2321" y="434.5" width="75" height="30" as="geometry"/>
                </mxCell>
                <mxCell id="24" style="edgeStyle=none;html=1;endArrow=none;endFill=0;strokeWidth=2;fontSize=20;labelBackgroundColor=none;fontColor=default;fontStyle=0;fontFamily=Helvetica;" parent="1" source="25" target="27" edge="1">
                    <mxGeometry relative="1" as="geometry">
                        <mxPoint x="2039.75" y="367.75" as="sourcePoint"/>
                    </mxGeometry>
                </mxCell>
                <mxCell id="25" value="Maneja" style="text;html=1;align=center;verticalAlign=middle;whiteSpace=wrap;rounded=0;fontSize=20;labelBackgroundColor=none;strokeWidth=2;fontColor=default;fontStyle=0;fontFamily=Helvetica;" parent="1" vertex="1">
                    <mxGeometry x="2110" y="161.25" width="75" height="30" as="geometry"/>
                </mxCell>
                <mxCell id="26" style="edgeStyle=none;shape=connector;rounded=1;orthogonalLoop=1;jettySize=auto;html=1;strokeWidth=2;align=center;verticalAlign=middle;fontFamily=Helvetica;fontSize=20;fontColor=default;labelBackgroundColor=none;endArrow=none;endFill=0;fontStyle=0" parent="1" source="27" target="55" edge="1">
                    <mxGeometry relative="1" as="geometry">
                        <mxPoint x="2389.75" y="87.5" as="targetPoint"/>
                    </mxGeometry>
                </mxCell>
                <mxCell id="31" style="edgeStyle=none;shape=connector;rounded=1;html=1;labelBackgroundColor=none;strokeWidth=2;fontFamily=Helvetica;fontSize=20;fontColor=default;endArrow=none;endFill=0;fontStyle=0" parent="1" source="32" target="36" edge="1">
                    <mxGeometry relative="1" as="geometry">
                        <mxPoint x="2693.886521739131" y="155.5" as="targetPoint"/>
                        <mxPoint x="2622.0049625187407" y="198.5" as="sourcePoint"/>
                    </mxGeometry>
                </mxCell>
                <mxCell id="33" style="edgeStyle=none;shape=connector;rounded=1;html=1;labelBackgroundColor=none;strokeWidth=2;fontFamily=Helvetica;fontSize=20;fontColor=default;endArrow=none;endFill=0;fontStyle=0" parent="1" source="34" target="36" edge="1">
                    <mxGeometry relative="1" as="geometry">
                        <mxPoint x="2719.973478260869" y="155.5" as="targetPoint"/>
                    </mxGeometry>
                </mxCell>
                <mxCell id="34" value="Tiene" style="text;html=1;align=center;verticalAlign=middle;whiteSpace=wrap;rounded=0;fontSize=20;labelBackgroundColor=none;strokeWidth=2;fontColor=default;fontStyle=0;fontFamily=Helvetica;" parent="1" vertex="1">
                    <mxGeometry x="2870" y="165" width="75" height="30" as="geometry"/>
                </mxCell>
                <mxCell id="35" style="edgeStyle=none;shape=connector;rounded=1;orthogonalLoop=1;jettySize=auto;html=1;strokeWidth=2;align=center;verticalAlign=middle;fontFamily=Helvetica;fontSize=20;fontColor=default;labelBackgroundColor=none;endArrow=none;endFill=0;fontStyle=0" parent="1" source="36" target="55" edge="1">
                    <mxGeometry relative="1" as="geometry">
                        <mxPoint x="2609.75" y="37.5" as="targetPoint"/>
                    </mxGeometry>
                </mxCell>
                <mxCell id="37" style="edgeStyle=orthogonalEdgeStyle;rounded=0;orthogonalLoop=1;jettySize=auto;html=1;entryX=0.5;entryY=1;entryDx=0;entryDy=0;endArrow=none;endFill=0;strokeWidth=2;labelBackgroundColor=none;fontColor=default;fontSize=20;fontStyle=0;fontFamily=Helvetica;" parent="1" source="38" target="32" edge="1">
                    <mxGeometry relative="1" as="geometry"/>
                </mxCell>
                <mxCell id="38" value="&lt;span style=&quot;font-style: normal; font-variant-ligatures: normal; font-variant-caps: normal; letter-spacing: normal; orphans: 2; text-indent: 0px; text-transform: none; widows: 2; word-spacing: 0px; -webkit-text-stroke-width: 0px; white-space: normal; text-decoration-thickness: initial; text-decoration-style: initial; text-decoration-color: initial; float: none; font-size: 35px; display: inline !important;&quot;&gt;&lt;font style=&quot;font-size: 35px;&quot;&gt;&lt;span style=&quot;font-size: 35px;&quot;&gt;π&lt;/span&gt;&lt;/font&gt;&lt;/span&gt;" style="text;whiteSpace=wrap;html=1;align=center;verticalAlign=middle;fontSize=35;labelBackgroundColor=none;strokeWidth=2;fontColor=default;fontStyle=0;fontFamily=Helvetica;" parent="1" vertex="1">
                    <mxGeometry x="2757.5" y="437.5" width="20" height="30" as="geometry"/>
                </mxCell>
                <mxCell id="39" style="edgeStyle=orthogonalEdgeStyle;rounded=0;orthogonalLoop=1;jettySize=auto;html=1;entryX=0.5;entryY=1;entryDx=0;entryDy=0;endArrow=none;endFill=0;strokeWidth=2;labelBackgroundColor=none;fontColor=default;fontSize=20;fontStyle=0;fontFamily=Helvetica;" parent="1" source="40" target="38" edge="1">
                    <mxGeometry relative="1" as="geometry"/>
                </mxCell>
                <mxCell id="40" value="Asistente" style="text;html=1;align=center;verticalAlign=middle;whiteSpace=wrap;rounded=0;fontSize=20;labelBackgroundColor=none;strokeWidth=2;fontColor=default;fontStyle=0;fontFamily=Helvetica;" parent="1" vertex="1">
                    <mxGeometry x="2730" y="557.5" width="75" height="30" as="geometry"/>
                </mxCell>
                <mxCell id="43" value="&lt;span style=&quot;font-size: 20px; font-style: normal; font-variant-ligatures: normal; font-variant-caps: normal; letter-spacing: normal; orphans: 2; text-align: left; text-indent: 0px; text-transform: none; widows: 2; word-spacing: 0px; -webkit-text-stroke-width: 0px; white-space: normal; text-decoration-thickness: initial; text-decoration-style: initial; text-decoration-color: initial; float: none; display: inline !important;&quot;&gt;av.id_asistente,&lt;/span&gt;&lt;div style=&quot;font-size: 20px;&quot;&gt;&lt;span style=&quot;font-size: 20px; font-style: normal; font-variant-ligatures: normal; font-variant-caps: normal; letter-spacing: normal; orphans: 2; text-align: left; text-indent: 0px; text-transform: none; widows: 2; word-spacing: 0px; -webkit-text-stroke-width: 0px; white-space: normal; text-decoration-thickness: initial; text-decoration-style: initial; text-decoration-color: initial; float: none; display: inline !important;&quot;&gt;av.rol,&lt;div style=&quot;font-size: 20px;&quot;&gt;&lt;span style=&quot;font-size: 20px;&quot;&gt;av.subrol&lt;/span&gt;&lt;/div&gt;&lt;/span&gt;&lt;/div&gt;" style="text;whiteSpace=wrap;html=1;labelBackgroundColor=none;strokeWidth=2;fontColor=default;fontSize=20;fontStyle=0;fontFamily=Helvetica;" parent="1" vertex="1">
                    <mxGeometry x="2784.75" y="454.5" width="140.25" height="90" as="geometry"/>
                </mxCell>
                <mxCell id="44" value="Billetera" style="text;html=1;align=center;verticalAlign=middle;whiteSpace=wrap;rounded=0;fontSize=20;labelBackgroundColor=none;strokeWidth=2;fontColor=default;fontStyle=0;fontFamily=Helvetica;" parent="1" vertex="1">
                    <mxGeometry x="983" y="554" width="75" height="30" as="geometry"/>
                </mxCell>
                <mxCell id="45" style="rounded=0;orthogonalLoop=1;jettySize=auto;html=1;endArrow=none;endFill=0;labelBackgroundColor=none;fontColor=default;strokeWidth=2;fontSize=20;fontStyle=0;fontFamily=Helvetica;" parent="1" source="44" target="47" edge="1">
                    <mxGeometry relative="1" as="geometry">
                        <mxPoint x="1023.6300000000001" y="613" as="sourcePoint"/>
                        <mxPoint x="1023.6300000000001" y="528" as="targetPoint"/>
                    </mxGeometry>
                </mxCell>
                <mxCell id="46" style="edgeStyle=none;shape=connector;rounded=1;orthogonalLoop=1;jettySize=auto;html=1;strokeWidth=2;align=center;verticalAlign=middle;fontFamily=Helvetica;fontSize=20;fontColor=default;labelBackgroundColor=none;endArrow=none;endFill=0;fontStyle=0" parent="1" source="47" target="52" edge="1">
                    <mxGeometry relative="1" as="geometry"/>
                </mxCell>
                <mxCell id="47" value="&lt;span style=&quot;font-style: normal; font-variant-ligatures: normal; font-variant-caps: normal; letter-spacing: normal; orphans: 2; text-indent: 0px; text-transform: none; widows: 2; word-spacing: 0px; -webkit-text-stroke-width: 0px; white-space: normal; text-decoration-thickness: initial; text-decoration-style: initial; text-decoration-color: initial; float: none; font-size: 35px; display: inline !important;&quot;&gt;&lt;font style=&quot;font-size: 35px;&quot;&gt;&lt;span style=&quot;font-size: 35px;&quot;&gt;π&lt;/span&gt;&lt;/font&gt;&lt;/span&gt;" style="text;whiteSpace=wrap;html=1;align=center;verticalAlign=middle;fontSize=35;labelBackgroundColor=none;strokeWidth=2;fontColor=default;fontStyle=0;fontFamily=Helvetica;" parent="1" vertex="1">
                    <mxGeometry x="1006.75" y="449.5" width="27.5" height="36.5" as="geometry"/>
                </mxCell>
                <mxCell id="48" value="&lt;span style=&quot;font-size: 20px;&quot;&gt;b.email,&lt;/span&gt;&lt;div style=&quot;font-size: 20px;&quot;&gt;&lt;span style=&quot;font-size: 20px;&quot;&gt;b.cant_gemas&lt;/span&gt;&lt;/div&gt;" style="text;whiteSpace=wrap;html=1;labelBackgroundColor=none;verticalAlign=top;strokeWidth=2;fontColor=default;fontSize=20;fontStyle=0;fontFamily=Helvetica;" parent="1" vertex="1">
                    <mxGeometry x="1036" y="486" width="112.5" height="90" as="geometry"/>
                </mxCell>
                <mxCell id="49" style="edgeStyle=none;shape=connector;rounded=1;orthogonalLoop=1;jettySize=auto;html=1;strokeWidth=2;align=center;verticalAlign=middle;fontFamily=Helvetica;fontSize=20;fontColor=default;labelBackgroundColor=none;endArrow=none;endFill=0;fontStyle=0" parent="1" source="50" target="9" edge="1">
                    <mxGeometry relative="1" as="geometry"/>
                </mxCell>
                <mxCell id="51" style="edgeStyle=none;shape=connector;rounded=1;orthogonalLoop=1;jettySize=auto;html=1;strokeWidth=2;align=center;verticalAlign=middle;fontFamily=Helvetica;fontSize=20;fontColor=default;labelBackgroundColor=none;endArrow=none;endFill=0;fontStyle=0" parent="1" source="52" target="50" edge="1">
                    <mxGeometry relative="1" as="geometry"/>
                </mxCell>
                <mxCell id="52" value="&lt;span style=&quot;font-size: 35px;&quot;&gt;σ &lt;/span&gt;" style="text;html=1;align=center;verticalAlign=middle;whiteSpace=wrap;rounded=0;fontFamily=Helvetica;fontSize=35;labelBackgroundColor=none;strokeWidth=2;fontColor=default;fontStyle=0" parent="1" vertex="1">
                    <mxGeometry x="990.5" y="325.5" width="60" height="40" as="geometry"/>
                </mxCell>
                <mxCell id="53" value="&lt;span style=&quot;font-size: 20px; font-style: normal; font-variant-ligatures: normal; font-variant-caps: normal; letter-spacing: normal; orphans: 2; text-align: left; text-indent: 0px; text-transform: none; widows: 2; word-spacing: 0px; -webkit-text-stroke-width: 0px; white-space: normal; text-decoration-thickness: initial; text-decoration-style: initial; text-decoration-color: initial; float: none; display: inline !important;&quot;&gt;b.cant_gemas &amp;lt; 400&lt;/span&gt;" style="text;whiteSpace=wrap;html=1;strokeWidth=2;fontColor=default;labelBackgroundColor=none;fontSize=20;fontStyle=0;fontFamily=Helvetica;" parent="1" vertex="1">
                    <mxGeometry x="1053" y="328" width="245" height="43" as="geometry"/>
                </mxCell>
                <mxCell id="54" style="edgeStyle=none;shape=connector;rounded=1;orthogonalLoop=1;jettySize=auto;html=1;strokeWidth=2;align=center;verticalAlign=middle;fontFamily=Helvetica;fontSize=20;fontColor=default;labelBackgroundColor=none;endArrow=none;endFill=0;fontStyle=0" parent="1" source="55" target="60" edge="1">
                    <mxGeometry relative="1" as="geometry"/>
                </mxCell>
                <mxCell id="59" style="edgeStyle=none;shape=connector;rounded=1;orthogonalLoop=1;jettySize=auto;html=1;strokeWidth=2;align=center;verticalAlign=middle;fontFamily=Helvetica;fontSize=20;fontColor=default;labelBackgroundColor=none;endArrow=none;endFill=0;fontStyle=0" parent="1" source="60" target="61" edge="1">
                    <mxGeometry relative="1" as="geometry">
                        <mxPoint x="2003.5" y="-580" as="targetPoint"/>
                    </mxGeometry>
                </mxCell>
                <mxCell id="61" value="π " style="text;html=1;align=center;verticalAlign=middle;whiteSpace=wrap;rounded=0;labelBackgroundColor=none;fontFamily=Helvetica;fontSize=35;strokeWidth=2;fontColor=default;fontStyle=0" parent="1" vertex="1">
                    <mxGeometry x="1973.5" y="-650" width="60" height="30" as="geometry"/>
                </mxCell>
                <mxCell id="62" value="u.nombre" style="text;html=1;align=center;verticalAlign=middle;whiteSpace=wrap;rounded=0;labelBackgroundColor=none;fontFamily=Helvetica;fontSize=20;strokeWidth=2;fontColor=default;fontStyle=0" parent="1" vertex="1">
                    <mxGeometry x="2038.5" y="-647.5" width="60" height="30" as="geometry"/>
                </mxCell>
                <mxCell id="63" value="&lt;font style=&quot;font-size: 40px;&quot;&gt;Arbol Optimizado&lt;/font&gt;" style="text;html=1;align=center;verticalAlign=middle;resizable=0;points=[];autosize=1;fontStyle=7;labelBackgroundColor=none;strokeWidth=2;fontColor=default;fontSize=40;fontFamily=Helvetica;" parent="1" vertex="1">
                    <mxGeometry x="1888" y="-830" width="360" height="60" as="geometry"/>
                </mxCell>
                <mxCell id="64" value="&lt;font style=&quot;font-size: 16px;&quot;&gt;20.000.000&lt;br style=&quot;font-size: 16px;&quot;&gt;&lt;br style=&quot;font-size: 16px;&quot;&gt;f = 18&lt;br style=&quot;font-size: 16px;&quot;&gt;&lt;br style=&quot;font-size: 16px;&quot;&gt;Tamaño tupla = 112&lt;br style=&quot;font-size: 16px;&quot;&gt;&lt;br style=&quot;font-size: 16px;&quot;&gt;Tamaño tabla = 1.111.112 bloques&lt;br style=&quot;font-size: 16px;&quot;&gt;&lt;/font&gt;" style="text;html=1;strokeColor=none;fillColor=none;align=left;verticalAlign=top;whiteSpace=wrap;rounded=0;fontColor=#007FFF;fontSize=16;fontFamily=Helvetica;" parent="1" vertex="1">
                    <mxGeometry x="983" y="593" width="315" height="222" as="geometry"/>
                </mxCell>
                <mxCell id="65" value="&lt;font style=&quot;font-size: 16px;&quot;&gt;20.000.000&lt;br style=&quot;font-size: 16px;&quot;&gt;&lt;br style=&quot;font-size: 16px;&quot;&gt;f = 5&lt;br style=&quot;font-size: 16px;&quot;&gt;&lt;br style=&quot;font-size: 16px;&quot;&gt;Tamaño tupla = 366&lt;br style=&quot;font-size: 16px;&quot;&gt;&lt;br style=&quot;font-size: 16px;&quot;&gt;Tamaño tabla = 4.000.000 bloques&lt;br style=&quot;font-size: 16px;&quot;&gt;&lt;/font&gt;" style="text;html=1;strokeColor=none;fillColor=none;align=left;verticalAlign=top;whiteSpace=wrap;rounded=0;fontColor=#007FFF;fontSize=16;fontFamily=Helvetica;" parent="1" vertex="1">
                    <mxGeometry x="1316.75" y="580" width="331.25" height="222" as="geometry"/>
                </mxCell>
                <mxCell id="66" value="&lt;font style=&quot;font-size: 16px;&quot;&gt;160&lt;br style=&quot;font-size: 16px;&quot;&gt;&lt;br style=&quot;font-size: 16px;&quot;&gt;f = 19&lt;br style=&quot;font-size: 16px;&quot;&gt;&lt;br style=&quot;font-size: 16px;&quot;&gt;Tamaño tupla = 104&lt;br style=&quot;font-size: 16px;&quot;&gt;&lt;br style=&quot;font-size: 16px;&quot;&gt;Tamaño tabla = 9 bloques&lt;br style=&quot;font-size: 16px;&quot;&gt;&lt;/font&gt;" style="text;html=1;strokeColor=none;fillColor=none;align=left;verticalAlign=top;whiteSpace=wrap;rounded=0;fontColor=#007FFF;fontSize=16;fontFamily=Helvetica;" parent="1" vertex="1">
                    <mxGeometry x="1787.63" y="384" width="331.25" height="222" as="geometry"/>
                </mxCell>
                <mxCell id="67" value="&lt;font style=&quot;font-size: 16px;&quot;&gt;1.120.000&lt;br style=&quot;font-size: 16px;&quot;&gt;&lt;br style=&quot;font-size: 16px;&quot;&gt;f = 256&lt;br style=&quot;font-size: 16px;&quot;&gt;&lt;br style=&quot;font-size: 16px;&quot;&gt;Tamaño tupla = 8&lt;br style=&quot;font-size: 16px;&quot;&gt;&lt;br style=&quot;font-size: 16px;&quot;&gt;Tamaño tabla = 4375 bloques&lt;br style=&quot;font-size: 16px;&quot;&gt;&lt;/font&gt;" style="text;html=1;strokeColor=none;fillColor=none;align=left;verticalAlign=top;whiteSpace=wrap;rounded=0;fontColor=#007FFF;fontStyle=0;fontSize=16;fontFamily=Helvetica;" parent="1" vertex="1">
                    <mxGeometry x="2110.25" y="203.5" width="228" height="222" as="geometry"/>
                </mxCell>
                <mxCell id="69" value="&lt;font style=&quot;font-size: 16px;&quot;&gt;50&lt;br style=&quot;font-size: 16px;&quot;&gt;&lt;br style=&quot;font-size: 16px;&quot;&gt;f = 37&lt;br style=&quot;font-size: 16px;&quot;&gt;&lt;br style=&quot;font-size: 16px;&quot;&gt;Tamaño tupla = 54&lt;br style=&quot;font-size: 16px;&quot;&gt;&lt;br style=&quot;font-size: 16px;&quot;&gt;Tamaño tabla = 2 bloques&lt;br style=&quot;font-size: 16px;&quot;&gt;&lt;/font&gt;" style="text;html=1;strokeColor=none;fillColor=none;align=left;verticalAlign=top;whiteSpace=wrap;rounded=0;fontColor=#007FFF;fontSize=16;fontFamily=Helvetica;" parent="1" vertex="1">
                    <mxGeometry x="2328.5" y="476.5" width="210" height="160" as="geometry"/>
                </mxCell>
                <mxCell id="70" value="&lt;font style=&quot;font-size: 16px;&quot;&gt;20.000.000&lt;br style=&quot;font-size: 16px;&quot;&gt;&lt;br style=&quot;font-size: 16px;&quot;&gt;f = 4&lt;br style=&quot;font-size: 16px;&quot;&gt;&lt;br style=&quot;font-size: 16px;&quot;&gt;Tamaño tupla = 479&lt;br style=&quot;font-size: 16px;&quot;&gt;&lt;br style=&quot;font-size: 16px;&quot;&gt;Tamaño tabla = 5.000.000 bloques&lt;br style=&quot;font-size: 16px;&quot;&gt;&lt;/font&gt;" style="text;html=1;strokeColor=none;fillColor=none;align=left;verticalAlign=top;whiteSpace=wrap;rounded=0;fontColor=#007FFF;fontSize=16;fontFamily=Helvetica;" parent="1" vertex="1">
                    <mxGeometry x="2730" y="599.5" width="331.25" height="222" as="geometry"/>
                </mxCell>
                <mxCell id="71" value="&lt;font style=&quot;font-size: 20px;&quot;&gt;20.000.000&lt;br&gt;&lt;br&gt;f = 19&lt;br&gt;&lt;br&gt;Tamaño tupla = 104&lt;br&gt;&lt;br&gt;Tamaño tabla = 1.052.632 bloques&lt;br&gt;&lt;/font&gt;" style="text;html=1;strokeColor=none;fillColor=none;align=left;verticalAlign=top;whiteSpace=wrap;rounded=0;fontFamily=Helvetica;" parent="1" vertex="1">
                    <mxGeometry x="2885" y="197.5" width="331.25" height="222" as="geometry"/>
                </mxCell>
                <mxCell id="72" value="Cantidad de bloques = 1.052.632" style="text;html=1;align=center;verticalAlign=middle;resizable=0;points=[];autosize=1;strokeColor=none;fillColor=none;fontSize=14;fontFamily=Helvetica;fontColor=#007FFF;" parent="1" vertex="1">
                    <mxGeometry x="1046.75" y="449.5" width="230" height="30" as="geometry"/>
                </mxCell>
                <mxCell id="73" value="Cantidad de bloques:&amp;nbsp;&lt;span style=&quot;font-size: 14px;&quot;&gt;252.638&lt;/span&gt;" style="text;html=1;align=center;verticalAlign=middle;resizable=0;points=[];autosize=1;strokeColor=none;fillColor=none;fontSize=14;fontFamily=Helvetica;fontColor=#007FFF;labelBackgroundColor=none;" parent="1" vertex="1">
                    <mxGeometry x="1053" y="298" width="210" height="30" as="geometry"/>
                </mxCell>
                <mxCell id="74" value="Cantidad de bloques: 2.000.000" style="text;html=1;align=center;verticalAlign=middle;resizable=0;points=[];autosize=1;strokeColor=none;fillColor=none;fontColor=#007FFF;fontSize=14;fontFamily=Helvetica;" parent="1" vertex="1">
                    <mxGeometry x="1364.25" y="419.5" width="220" height="30" as="geometry"/>
                </mxCell>
                <mxCell id="75" value="&lt;font style=&quot;font-size: 14px;&quot;&gt;Cantidad de bloques:&amp;nbsp;&lt;span style=&quot;font-size: 14px;&quot;&gt;289.123&lt;/span&gt;&lt;/font&gt;" style="text;html=1;align=center;verticalAlign=middle;resizable=0;points=[];autosize=1;strokeColor=none;fillColor=none;fontColor=#007FFF;fontSize=14;labelBackgroundColor=none;fontFamily=Helvetica;" parent="1" vertex="1">
                    <mxGeometry x="1374.25" y="257.75" width="210" height="30" as="geometry"/>
                </mxCell>
                <mxCell id="76" value="Cantidad de bloques: 9" style="text;html=1;align=center;verticalAlign=middle;resizable=0;points=[];autosize=1;strokeColor=none;fillColor=none;fontColor=#007FFF;fontSize=14;fontFamily=Helvetica;" parent="1" vertex="1">
                    <mxGeometry x="1832" y="213.5" width="170" height="30" as="geometry"/>
                </mxCell>
                <mxCell id="77" value="Cantidad de bloques: 2" style="text;html=1;align=center;verticalAlign=middle;resizable=0;points=[];autosize=1;strokeColor=none;fillColor=none;fontColor=#007FFF;fontSize=14;fontFamily=Helvetica;" parent="1" vertex="1">
                    <mxGeometry x="1823.25" y="60.75" width="170" height="30" as="geometry"/>
                </mxCell>
                <mxCell id="80" value="Cantidad de bloques: 1.052.632" style="text;html=1;align=center;verticalAlign=middle;resizable=0;points=[];autosize=1;strokeColor=none;fillColor=none;fontColor=#007FFF;fontSize=14;fontFamily=Helvetica;" parent="1" vertex="1">
                    <mxGeometry x="2775" y="419.5" width="220" height="30" as="geometry"/>
                </mxCell>
                <mxCell id="95" value="Cantidad de bloques: 21.282.456" style="text;html=1;align=center;verticalAlign=middle;resizable=0;points=[];autosize=1;strokeColor=none;fillColor=none;fontSize=14;fontFamily=Helvetica;fontColor=#007FFF;" vertex="1" parent="1">
                    <mxGeometry x="2026" y="-680" width="230" height="30" as="geometry"/>
                </mxCell>
                <mxCell id="98" value="" style="group" vertex="1" connectable="0" parent="1">
                    <mxGeometry x="1288" y="-170" width="494" height="36" as="geometry"/>
                </mxCell>
                <mxCell id="10" value="&lt;span style=&quot;font-size: 20px; font-style: normal; font-variant-ligatures: normal; font-variant-caps: normal; letter-spacing: normal; orphans: 2; text-align: left; text-indent: 0px; text-transform: none; widows: 2; word-spacing: 0px; -webkit-text-stroke-width: 0px; white-space: normal; text-decoration-thickness: initial; text-decoration-style: initial; text-decoration-color: initial; float: none; display: inline !important;&quot;&gt;u.id_pais = p.id_pais&lt;/span&gt;" style="text;whiteSpace=wrap;html=1;labelBackgroundColor=none;verticalAlign=middle;strokeWidth=2;fontColor=default;fontSize=20;fontStyle=0;fontFamily=Helvetica;" parent="98" vertex="1">
                    <mxGeometry x="274" y="2.5" width="220" height="31" as="geometry"/>
                </mxCell>
                <mxCell id="97" value="" style="group" vertex="1" connectable="0" parent="98">
                    <mxGeometry width="278.75" height="36" as="geometry"/>
                </mxCell>
                <mxCell id="9" value="&lt;span style=&quot;text-align: start; font-size: 35px;&quot;&gt;&lt;font style=&quot;font-size: 35px;&quot;&gt;⋈&lt;/font&gt;&lt;/span&gt;" style="text;html=1;align=center;verticalAlign=middle;whiteSpace=wrap;rounded=0;fontSize=35;labelBackgroundColor=none;strokeWidth=2;fontColor=default;fontStyle=0;fontFamily=Helvetica;" parent="97" vertex="1">
                    <mxGeometry x="203.75" width="75" height="36" as="geometry"/>
                </mxCell>
                <mxCell id="90" value="Cantidad de bloques: 21.358.424" style="text;html=1;align=center;verticalAlign=middle;resizable=0;points=[];autosize=1;strokeColor=none;fillColor=none;fontSize=14;fontFamily=Helvetica;fontColor=#007FFF;labelBackgroundColor=none;" vertex="1" parent="97">
                    <mxGeometry y="6" width="230" height="30" as="geometry"/>
                </mxCell>
                <mxCell id="99" value="" style="group" vertex="1" connectable="0" parent="1">
                    <mxGeometry x="919" y="114.5" width="484" height="61" as="geometry"/>
                </mxCell>
                <mxCell id="57" value="&lt;span style=&quot;font-size: 20px; font-style: normal; font-variant-ligatures: normal; font-variant-caps: normal; letter-spacing: normal; orphans: 2; text-align: left; text-indent: 0px; text-transform: none; widows: 2; word-spacing: 0px; -webkit-text-stroke-width: 0px; white-space: normal; text-decoration-thickness: initial; text-decoration-style: initial; text-decoration-color: initial; float: none; display: inline !important;&quot;&gt;u.email = b.email&lt;/span&gt;" style="text;whiteSpace=wrap;html=1;fontFamily=Helvetica;fontSize=20;labelBackgroundColor=none;strokeWidth=2;fontColor=default;fontStyle=0" parent="99" vertex="1">
                    <mxGeometry x="294" y="11" width="190" height="50" as="geometry"/>
                </mxCell>
                <mxCell id="96" value="" style="group" vertex="1" connectable="0" parent="99">
                    <mxGeometry width="294" height="36" as="geometry"/>
                </mxCell>
                <mxCell id="50" value="&lt;span style=&quot;text-align: start; font-size: 35px;&quot;&gt;&lt;font style=&quot;font-size: 35px;&quot;&gt;⋈&lt;/font&gt;&lt;/span&gt;" style="text;html=1;align=center;verticalAlign=middle;whiteSpace=wrap;rounded=0;fontSize=35;labelBackgroundColor=none;strokeWidth=2;fontColor=default;fontStyle=0;fontFamily=Helvetica;" parent="96" vertex="1">
                    <mxGeometry x="219" width="75" height="36" as="geometry"/>
                </mxCell>
                <mxCell id="89" value="Cantidad de bloques:&amp;nbsp;&lt;span style=&quot;font-size: 14px;&quot;&gt;21.368.424&lt;/span&gt;" style="text;html=1;align=center;verticalAlign=middle;resizable=0;points=[];autosize=1;strokeColor=none;fillColor=none;fontSize=14;fontFamily=Helvetica;fontColor=#007FFF;labelBackgroundColor=none;" vertex="1" parent="96">
                    <mxGeometry y="6" width="230" height="30" as="geometry"/>
                </mxCell>
                <mxCell id="100" value="" style="group" vertex="1" connectable="0" parent="1">
                    <mxGeometry x="1966" y="-420" width="305" height="90" as="geometry"/>
                </mxCell>
                <mxCell id="58" value="&lt;span style=&quot;font-size: 20px; font-style: normal; font-variant-ligatures: normal; font-variant-caps: normal; letter-spacing: normal; orphans: 2; text-align: left; text-indent: 0px; text-transform: none; widows: 2; word-spacing: 0px; -webkit-text-stroke-width: 0px; white-space: normal; text-decoration-thickness: initial; text-decoration-style: initial; text-decoration-color: initial; float: none; display: inline !important;&quot;&gt;u.email = t.email&lt;/span&gt;&lt;br style=&quot;forced-color-adjust: none; font-size: 20px; font-style: normal; font-variant-ligatures: normal; font-variant-caps: normal; letter-spacing: normal; orphans: 2; text-align: left; text-indent: 0px; text-transform: none; widows: 2; word-spacing: 0px; -webkit-text-stroke-width: 0px; white-space: normal; text-decoration-thickness: initial; text-decoration-style: initial; text-decoration-color: initial;&quot;&gt;" style="text;whiteSpace=wrap;html=1;fontFamily=Helvetica;fontSize=20;labelBackgroundColor=none;strokeWidth=2;fontColor=default;fontStyle=0" parent="100" vertex="1">
                    <mxGeometry x="65" y="40" width="180" height="50" as="geometry"/>
                </mxCell>
                <mxCell id="60" value="&lt;span style=&quot;text-align: start; font-size: 35px;&quot;&gt;&lt;font style=&quot;font-size: 35px;&quot;&gt;⋈&lt;/font&gt;&lt;/span&gt;" style="text;html=1;align=center;verticalAlign=middle;whiteSpace=wrap;rounded=0;fontSize=35;labelBackgroundColor=none;strokeWidth=2;fontColor=default;fontStyle=0;fontFamily=Helvetica;" parent="100" vertex="1">
                    <mxGeometry y="54" width="75" height="36" as="geometry"/>
                </mxCell>
                <mxCell id="94" value="Cantidad de bloques: 425.649.113" style="text;html=1;align=center;verticalAlign=middle;resizable=0;points=[];autosize=1;strokeColor=none;fillColor=none;fontSize=14;fontFamily=Helvetica;fontColor=#007FFF;" vertex="1" parent="100">
                    <mxGeometry x="65" width="240" height="30" as="geometry"/>
                </mxCell>
                <mxCell id="101" value="" style="group" vertex="1" connectable="0" parent="1">
                    <mxGeometry x="2449.75" y="-90" width="390" height="71.5" as="geometry"/>
                </mxCell>
                <mxCell id="55" value="&lt;span style=&quot;font-size: 35px; text-align: start;&quot;&gt;⋈&lt;/span&gt;" style="text;html=1;align=center;verticalAlign=middle;whiteSpace=wrap;rounded=0;fontSize=35;labelBackgroundColor=none;strokeWidth=2;fontColor=default;fontStyle=0;fontFamily=Helvetica;" parent="101" vertex="1">
                    <mxGeometry y="37.5" width="75" height="30" as="geometry"/>
                </mxCell>
                <mxCell id="56" value="&lt;span style=&quot;font-size: 20px; font-style: normal; font-variant-ligatures: normal; font-variant-caps: normal; letter-spacing: normal; orphans: 2; text-align: left; text-indent: 0px; text-transform: none; widows: 2; word-spacing: 0px; -webkit-text-stroke-width: 0px; white-space: normal; text-decoration-thickness: initial; text-decoration-style: initial; text-decoration-color: initial; float: none; display: inline !important;&quot;&gt;av.id_asistente = m.id_asistente&lt;/span&gt;" style="text;whiteSpace=wrap;html=1;fontFamily=Helvetica;fontSize=20;labelBackgroundColor=none;strokeWidth=2;fontColor=default;fontStyle=0" parent="101" vertex="1">
                    <mxGeometry x="70" y="37.5" width="320" height="34" as="geometry"/>
                </mxCell>
                <mxCell id="93" value="Cantidad de bloques: 39.295.735" style="text;html=1;align=center;verticalAlign=middle;resizable=0;points=[];autosize=1;strokeColor=none;fillColor=none;fontSize=14;fontFamily=Helvetica;fontColor=#007FFF;" vertex="1" parent="101">
                    <mxGeometry x="70" width="230" height="30" as="geometry"/>
                </mxCell>
                <mxCell id="102" value="" style="group" vertex="1" connectable="0" parent="1">
                    <mxGeometry x="2730" y="63" width="410" height="68" as="geometry"/>
                </mxCell>
                <mxCell id="36" value="&lt;span style=&quot;font-size: 35px; text-align: start;&quot;&gt;⋈&lt;/span&gt;" style="text;html=1;align=center;verticalAlign=middle;whiteSpace=wrap;rounded=0;fontSize=35;labelBackgroundColor=none;strokeWidth=2;fontColor=default;fontStyle=0;fontFamily=Helvetica;" parent="102" vertex="1">
                    <mxGeometry y="38" width="75" height="30" as="geometry"/>
                </mxCell>
                <mxCell id="42" value="&lt;span style=&quot;font-size: 20px; font-style: normal; font-variant-ligatures: normal; font-variant-caps: normal; letter-spacing: normal; orphans: 2; text-align: left; text-indent: 0px; text-transform: none; widows: 2; word-spacing: 0px; -webkit-text-stroke-width: 0px; white-space: normal; text-decoration-thickness: initial; text-decoration-style: initial; text-decoration-color: initial; float: none; display: inline !important;&quot;&gt;t.id_asistente = av.id_asistente&amp;nbsp;&lt;/span&gt;" style="text;whiteSpace=wrap;html=1;labelBackgroundColor=none;strokeWidth=2;fontColor=default;fontSize=20;fontStyle=0;fontFamily=Helvetica;" parent="102" vertex="1">
                    <mxGeometry x="60" y="26.5" width="350" height="30" as="geometry"/>
                </mxCell>
                <mxCell id="92" value="Cantidad de bloques: 7.854.770" style="text;html=1;align=center;verticalAlign=middle;resizable=0;points=[];autosize=1;strokeColor=none;fillColor=none;fontSize=14;fontFamily=Helvetica;fontColor=#007FFF;" vertex="1" parent="102">
                    <mxGeometry x="32.570000000000164" width="220" height="30" as="geometry"/>
                </mxCell>
                <mxCell id="104" value="" style="group" vertex="1" connectable="0" parent="1">
                    <mxGeometry x="2290" y="77.25" width="330" height="70" as="geometry"/>
                </mxCell>
                <mxCell id="27" value="&lt;span style=&quot;font-size: 35px; text-align: start;&quot;&gt;⋈&lt;/span&gt;" style="text;html=1;align=center;verticalAlign=middle;whiteSpace=wrap;rounded=0;fontSize=35;labelBackgroundColor=none;strokeWidth=2;fontColor=default;fontStyle=0;fontFamily=Helvetica;" parent="104" vertex="1">
                    <mxGeometry y="30" width="75" height="30" as="geometry"/>
                </mxCell>
                <mxCell id="30" value="&lt;span style=&quot;font-size: 20px; font-style: normal; font-variant-ligatures: normal; font-variant-caps: normal; letter-spacing: normal; orphans: 2; text-align: left; text-indent: 0px; text-transform: none; widows: 2; word-spacing: 0px; -webkit-text-stroke-width: 0px; white-space: normal; text-decoration-thickness: initial; text-decoration-style: initial; text-decoration-color: initial; float: none; display: inline !important;&quot;&gt;m.id_idioma = i.id_idioma&lt;/span&gt;" style="text;whiteSpace=wrap;html=1;fontFamily=Helvetica;fontSize=20;labelBackgroundColor=none;strokeWidth=2;fontColor=default;fontStyle=0" parent="104" vertex="1">
                    <mxGeometry x="70" y="30" width="260" height="40" as="geometry"/>
                </mxCell>
                <mxCell id="91" value="Cantidad de bloqures: 4377" style="text;html=1;align=center;verticalAlign=middle;resizable=0;points=[];autosize=1;strokeColor=none;fillColor=none;fontSize=14;fontFamily=Helvetica;fontColor=#007FFF;labelBackgroundColor=none;" vertex="1" parent="104">
                    <mxGeometry x="70" width="200" height="30" as="geometry"/>
                </mxCell>
                <mxCell id="105" value="" style="group" vertex="1" connectable="0" parent="1">
                    <mxGeometry x="2328.5" y="339.5" width="230" height="68" as="geometry"/>
                </mxCell>
                <mxCell id="28" value="&lt;span style=&quot;font-size: 20px; font-style: normal; font-variant-ligatures: normal; font-variant-caps: normal; letter-spacing: normal; orphans: 2; text-align: left; text-indent: 0px; text-transform: none; widows: 2; word-spacing: 0px; -webkit-text-stroke-width: 0px; white-space: normal; text-decoration-thickness: initial; text-decoration-style: initial; text-decoration-color: initial; float: none; display: inline !important;&quot;&gt;i.nombre = 'Ingles'&lt;/span&gt;" style="text;whiteSpace=wrap;html=1;fontFamily=Helvetica;fontSize=20;labelBackgroundColor=none;strokeWidth=2;fontColor=default;fontStyle=0" parent="105" vertex="1">
                    <mxGeometry x="50" y="30" width="180" height="38" as="geometry"/>
                </mxCell>
                <mxCell id="29" value="&lt;span style=&quot;font-size: 35px;&quot;&gt;σ &lt;/span&gt;" style="text;html=1;align=center;verticalAlign=middle;whiteSpace=wrap;rounded=0;fontFamily=Helvetica;fontSize=35;labelBackgroundColor=none;strokeWidth=2;fontColor=default;fontStyle=0" parent="105" vertex="1">
                    <mxGeometry y="17" width="60" height="30" as="geometry"/>
                </mxCell>
                <mxCell id="78" value="Cantidad de bloques: 2" style="text;html=1;align=center;verticalAlign=middle;resizable=0;points=[];autosize=1;strokeColor=none;fillColor=none;fontColor=#007FFF;fontSize=14;fontFamily=Helvetica;" parent="105" vertex="1">
                    <mxGeometry x="30" width="170" height="30" as="geometry"/>
                </mxCell>
                <mxCell id="107" value="" style="group" vertex="1" connectable="0" parent="1">
                    <mxGeometry x="2430" y="239" width="375" height="101" as="geometry"/>
                </mxCell>
                <mxCell id="103" value="" style="group" vertex="1" connectable="0" parent="107">
                    <mxGeometry width="375" height="101" as="geometry"/>
                </mxCell>
                <UserObject label="&lt;span style=&quot;font-size: 20px; font-style: normal; font-variant-ligatures: normal; font-variant-caps: normal; letter-spacing: normal; orphans: 2; text-align: left; text-indent: 0px; text-transform: none; widows: 2; word-spacing: 0px; -webkit-text-stroke-width: 0px; white-space: normal; text-decoration-thickness: initial; text-decoration-style: initial; text-decoration-color: initial; float: none; display: inline !important;&quot;&gt;av.subrol = 'Enseñanza de Idiomas' AND&amp;nbsp;&lt;/span&gt;&lt;span style=&quot;font-size: 20px;&quot;&gt;av.rol = 'Tutor'&lt;/span&gt;" link="&lt;span style=&quot;color: rgb(0, 0, 0); font-family: Helvetica; font-size: 20px; font-style: normal; font-variant-ligatures: normal; font-variant-caps: normal; font-weight: 400; letter-spacing: normal; orphans: 2; text-align: left; text-indent: 0px; text-transform: none; widows: 2; word-spacing: 0px; -webkit-text-stroke-width: 0px; white-space: normal; background-color: rgb(251, 251, 251); text-decoration-thickness: initial; text-decoration-style: initial; text-decoration-color: initial; display: inline !important; float: none;&quot;&gt;av.subrol = 'Enseñanza de Idiomas' AND&lt;/span&gt;" id="41">
                    <mxCell style="text;whiteSpace=wrap;html=1;labelBackgroundColor=none;strokeWidth=2;fontColor=default;fontSize=20;fontStyle=0;fontFamily=Helvetica;" parent="103" vertex="1">
                        <mxGeometry y="30" width="360" height="71" as="geometry"/>
                    </mxCell>
                </UserObject>
                <mxCell id="79" value="Cantidad de bloques: 69.478" style="text;html=1;align=center;verticalAlign=middle;resizable=0;points=[];autosize=1;strokeColor=none;fillColor=none;fontColor=#007FFF;fontSize=14;fontFamily=Helvetica;" parent="103" vertex="1">
                    <mxGeometry x="120" width="200" height="30" as="geometry"/>
                </mxCell>
                <mxCell id="32" value="&lt;span style=&quot;font-size: 35px;&quot;&gt;σ&lt;/span&gt;" style="text;html=1;align=center;verticalAlign=middle;whiteSpace=wrap;rounded=0;fontSize=35;labelBackgroundColor=none;strokeWidth=2;fontColor=default;fontStyle=0;fontFamily=Helvetica;" parent="107" vertex="1">
                    <mxGeometry x="300" y="30.5" width="75" height="30" as="geometry"/>
                </mxCell>
            </root>
        </mxGraphModel>
    </diagram>
</mxfile>